# xmcd
#
# Track frame offsets:
#	150
#	13432
#	33341
#	48274
#	64799
#	78741
#	96625
#	107511
#	123196
#	142172
#	155094
#	172194
#
# Disc length: 2504 seconds
#
# Revision: 1
# Processed by: cddbd v1.5.2PL0 Copyright (c) Steve Scherf et al.
# Submitted via: audiograbber 1.83.01
#
DISCID=ae09c60c
DTITLE=Rivoli Ron and Kay - Simple Life
DYEAR=2007
DGENRE=Country
TTITLE0=When I Die Bury Me At Walmart
TTITLE1=I'll Call Kentucky Home
TTITLE2=Gator Hater
TTITLE3=Heartache Road
TTITLE4=Simple Life
TTITLE5=Dear Grandpa and Grandma
TTITLE6=On The Interstate
TTITLE7=Press One For English
TTITLE8=When Love Comes Late In Life
TTITLE9=Bingo
TTITLE10=I'll Never be Alone
TTITLE11=Runaway Truck Ramp
EXTD=
EXTT0=
EXTT1=
EXTT2=
EXTT3=
EXTT4=
EXTT5=
EXTT6=
EXTT7=
EXTT8=
EXTT9=
EXTT10=
EXTT11=
PLAYORDER=
